<svg xmlns="http://www.w3.org/2000/svg" width="800" height="600" viewBox="0 0 800 600" role="img" aria-label="Велокрепления — плейсхолдер">
  <defs>
    <linearGradient id="ph-bg" x1="0" y1="0" x2="1" y2="1">
      <stop offset="0%" stop-color="#f6f7f9" />
      <stop offset="100%" stop-color="#e7eaef" />
    </linearGradient>
    <radialGradient id="ph-glow" cx="50%" cy="38%" r="62%">
      <stop offset="0%" stop-color="#7c3aed" stop-opacity="0.22" />
      <stop offset="100%" stop-color="#7c3aed" stop-opacity="0" />
    </radialGradient>
  </defs>
  <rect width="800" height="600" fill="url(#ph-bg)" />
  <rect width="800" height="600" fill="url(#ph-glow)" />
  <rect x="14" y="14" width="772" height="572" rx="22" fill="none" stroke="#1e2430" stroke-opacity="0.1" stroke-width="2" />
  
  <g font-family="'Segoe UI', Roboto, Arial, sans-serif">
    <text x="40" y="66" font-size="26" font-weight="700" fill="#1e2430">Garage19</text>
    <text x="40" y="98" font-size="17" fill="#6b7280">Велокрепления</text>
    <text x="760" y="66" text-anchor="end" font-size="17" font-weight="600" fill="#f97316">на заднюю дверь</text>
  </g>
  
    <g stroke="#1e2430" stroke-width="10" fill="none" stroke-linecap="round">
      <circle cx="250" cy="392" r="66" />
      <circle cx="560" cy="392" r="66" />
      <path d="M250 392 L356 392 L428 306 L500 392 M356 392 L420 306 M420 306 L500 392 M470 286 H540" />
    </g>
    <g fill="#f97316">
      <rect x="150" y="452" width="500" height="22" rx="11" />
      <rect x="330" y="330" width="70" height="20" rx="10" />
    </g>
    <g stroke="#1e2430" stroke-width="8" stroke-linecap="round">
      <path d="M196 440 L300 440 M510 440 L614 440" />
    </g>
  
  <line x1="90" y1="472" x2="710" y2="472" stroke="#1e2430" stroke-opacity="0.18" stroke-width="3" stroke-linecap="round" />
  <g font-family="'Segoe UI', Roboto, Arial, sans-serif">
    <text x="400" y="540" text-anchor="middle" font-size="20" fill="#1e2430" fill-opacity="0.55">Изображение-плейсхолдер · фото добавляется в админке</text>
  </g>
</svg>
